<svg version="1.1" id="Layer_1" xmlns="http://www.w3.org/2000/svg" xmlns:xlink="http://www.w3.org/1999/xlink" x="0px" y="0px"
	 width="100%" viewBox="0 0 512 496" enable-background="new 0 0 512 496" xml:space="preserve">
<path fill="#000000" opacity="1.000000" stroke="none" 
	d="
M314.588379,410.356140 
	C331.675537,411.644958 347.411957,408.759888 360.874481,398.475464 
	C371.802673,390.127136 377.888824,378.355499 379.512177,364.868958 
	C381.434143,348.901672 371.709534,339.053833 359.384125,331.402344 
	C343.169861,321.336700 325.038055,316.297638 306.592438,312.288422 
	C298.034607,310.428314 289.424011,308.811096 280.894928,307.095337 
	C280.940338,304.418701 282.745270,303.521210 284.004028,302.289215 
	C315.278412,271.679138 344.412109,239.274017 367.779785,202.065201 
	C381.769196,179.789597 393.285919,156.417938 398.100494,130.278275 
	C400.826080,115.480453 400.943176,100.767303 394.478271,86.731628 
	C386.972656,70.436508 373.646698,62.463745 356.179199,61.410213 
	C336.710297,60.235962 319.616028,67.446800 303.756531,77.904686 
	C274.241669,97.367020 254.152115,124.892365 238.268494,155.803787 
	C220.930786,189.545044 210.575500,225.551315 204.262924,262.838776 
	C199.896194,288.632324 197.501709,314.590210 196.913193,340.734222 
	C196.809601,345.335419 196.282135,349.927094 195.917419,354.980194 
	C185.021881,352.365356 175.328506,348.022736 166.018555,342.903015 
	C148.600372,333.324493 134.354462,320.724915 128.327164,300.895325 
	C126.200935,293.900116 124.944168,286.758392 126.081085,278.967560 
	C128.638474,280.409668 128.590378,282.810394 129.232742,284.699066 
	C138.391541,311.627441 155.447327,331.111511 182.384628,341.329254 
	C188.173767,343.525208 188.317505,343.374878 188.829544,337.157013 
	C192.951736,287.100739 198.618179,237.271652 211.655487,188.594711 
	C220.795532,154.468872 232.908295,121.588249 254.082535,92.805222 
	C272.058655,68.369530 295.107269,51.152031 325.150543,44.376171 
	C342.078613,40.558277 359.315002,40.110905 376.228729,43.219780 
	C393.451263,46.385418 405.771210,57.327396 413.918457,72.673683 
	C423.146820,90.056488 424.915863,108.767517 422.650238,127.992744 
	C417.836487,168.840454 398.120056,202.858688 373.260498,234.377869 
	C354.401581,258.288849 332.412262,279.128754 308.890625,298.391327 
	C308.006653,299.115265 307.197571,299.930603 305.776611,301.231598 
	C315.788269,302.252838 325.097870,303.453400 334.231201,305.680267 
	C359.328857,311.799591 381.503357,322.615021 396.985870,344.368835 
	C413.149933,367.080261 412.184357,396.500549 394.277802,415.706940 
	C384.089661,426.634613 371.002106,432.109009 356.457001,434.293823 
	C331.472534,438.046753 307.836090,432.446381 284.738495,423.560059 
	C270.097260,417.927155 255.946289,411.418915 243.323929,401.797516 
	C234.893127,395.371185 225.515839,390.389893 215.162277,387.031036 
	C235.067383,404.782257 247.872269,426.081604 250.136688,453.885254 
	C247.068695,451.958405 246.604965,449.380737 245.591751,447.252899 
	C236.714401,428.609650 226.234482,411.104736 210.221542,397.565918 
	C193.658966,383.562439 174.342056,376.132446 152.867935,374.326263 
	C140.429977,373.280121 130.020279,368.653625 122.458168,358.541321 
	C119.219315,354.210175 117.543312,349.291840 120.331474,344.075378 
	C123.098282,338.898895 128.229736,338.402130 133.326889,338.460052 
	C141.688904,338.555023 149.335159,341.441833 156.604935,345.253479 
	C186.550247,360.954071 216.406982,376.822113 247.536530,390.127350 
	C266.386108,398.183960 285.362671,405.815857 305.728333,409.219879 
	C308.512360,409.685211 311.334167,409.924561 314.588379,410.356140 
z"/>
<path fill="#000000" opacity="1.000000" stroke="none" 
	d="
M89.209778,95.546349 
	C90.594139,88.224655 92.473854,81.512253 95.804565,75.283226 
	C104.758446,58.537888 120.010399,53.577141 137.108261,61.833569 
	C147.988831,67.087708 156.599030,75.149773 164.278809,84.241295 
	C182.977753,106.377617 195.750336,131.983444 207.162796,158.346039 
	C208.508514,161.454620 210.526703,164.403168 210.727478,168.579788 
	C208.022842,166.971100 207.332031,164.525085 206.164978,162.514755 
	C193.511475,140.718628 180.045898,119.503014 162.498795,101.198158 
	C156.012558,94.431808 149.068436,88.198296 140.417816,84.283798 
	C128.252213,78.778725 119.297668,82.174751 114.247925,94.566933 
	C109.369652,106.538292 108.993980,119.150932 109.924629,131.878830 
	C113.201569,176.695602 128.016464,218.262695 145.763077,258.983002 
	C154.618881,279.303009 164.662994,299.040955 175.738174,318.250427 
	C176.956146,320.362976 178.509293,322.367706 178.896423,325.339813 
	C177.189255,325.223541 176.562225,324.017517 175.832520,323.077057 
	C144.508789,282.705414 117.885590,239.668137 101.168083,191.042053 
	C91.788437,163.759552 86.100769,135.863129 87.716347,106.825607 
	C87.918701,103.188713 88.612312,99.579155 89.209778,95.546349 
z"/>
</svg>